<mxfile host="app.diagrams.net" modified="2022-06-15T10:13:33.077Z" agent="5.0 (X11; Linux x86_64) AppleWebKit/537.36 (KHTML, like Gecko) Chrome/102.0.5005.99 Safari/537.36" etag="GBId0g6gmye-rK78XmEz" version="20.0.1" type="github">
  <diagram id="ppC39IwgiAFX2ZTD-nuR" name="Page-1">
    <mxGraphModel dx="1089" dy="636" grid="1" gridSize="10" guides="1" tooltips="1" connect="1" arrows="1" fold="1" page="1" pageScale="1" pageWidth="850" pageHeight="1100" math="0" shadow="0">
      <root>
        <mxCell id="0" />
        <mxCell id="1" parent="0" />
        <mxCell id="mcf2gClhwfiL2pvnPJNO-1" value="&lt;b&gt;&lt;font style=&quot;font-size: 18px;&quot;&gt;0.2&lt;/font&gt;&lt;/b&gt;" style="whiteSpace=wrap;html=1;aspect=fixed;fillColor=#fff2cc;strokeColor=#d6b656;shadow=1;" parent="1" vertex="1">
          <mxGeometry x="85" y="70" width="80" height="80" as="geometry" />
        </mxCell>
        <mxCell id="mcf2gClhwfiL2pvnPJNO-2" value="&lt;b&gt;&lt;font style=&quot;font-size: 18px;&quot;&gt;-1.3&lt;/font&gt;&lt;/b&gt;" style="whiteSpace=wrap;html=1;aspect=fixed;fillColor=#dae8fc;strokeColor=#6c8ebf;shadow=1;" parent="1" vertex="1">
          <mxGeometry x="175" y="70" width="80" height="80" as="geometry" />
        </mxCell>
        <mxCell id="mcf2gClhwfiL2pvnPJNO-3" value="&lt;font style=&quot;font-size: 18px;&quot;&gt;&lt;b&gt;2.1&lt;/b&gt;&lt;/font&gt;" style="whiteSpace=wrap;html=1;aspect=fixed;fillColor=#d5e8d4;strokeColor=#82b366;shadow=1;" parent="1" vertex="1">
          <mxGeometry x="265" y="70" width="80" height="80" as="geometry" />
        </mxCell>
        <mxCell id="mcf2gClhwfiL2pvnPJNO-5" value="&lt;font style=&quot;font-size: 18px;&quot;&gt;&lt;b&gt;0.5&lt;/b&gt;&lt;/font&gt;" style="whiteSpace=wrap;html=1;aspect=fixed;fillColor=#ffe6cc;strokeColor=#d79b00;shadow=1;" parent="1" vertex="1">
          <mxGeometry x="85" y="160" width="80" height="80" as="geometry" />
        </mxCell>
        <mxCell id="mcf2gClhwfiL2pvnPJNO-6" value="&lt;font style=&quot;font-size: 18px;&quot;&gt;&lt;b&gt;0.3&lt;/b&gt;&lt;/font&gt;" style="whiteSpace=wrap;html=1;aspect=fixed;fillColor=#fff2cc;strokeColor=#d6b656;shadow=1;" parent="1" vertex="1">
          <mxGeometry x="175" y="160" width="80" height="80" as="geometry" />
        </mxCell>
        <mxCell id="mcf2gClhwfiL2pvnPJNO-7" value="&lt;font style=&quot;font-size: 18px;&quot;&gt;&lt;b&gt;3.5&lt;/b&gt;&lt;/font&gt;" style="whiteSpace=wrap;html=1;aspect=fixed;fillColor=#f8cecc;strokeColor=#b85450;shadow=1;" parent="1" vertex="1">
          <mxGeometry x="265" y="160" width="80" height="80" as="geometry" />
        </mxCell>
        <mxCell id="mcf2gClhwfiL2pvnPJNO-8" value="&lt;font style=&quot;font-size: 18px;&quot;&gt;&lt;b&gt;0.2&lt;/b&gt;&lt;/font&gt;" style="whiteSpace=wrap;html=1;aspect=fixed;fillColor=#fff2cc;strokeColor=#d6b656;shadow=1;" parent="1" vertex="1">
          <mxGeometry x="85" y="250" width="80" height="80" as="geometry" />
        </mxCell>
        <mxCell id="mcf2gClhwfiL2pvnPJNO-9" value="&lt;font style=&quot;font-size: 18px;&quot;&gt;&lt;b&gt;-2.1&lt;/b&gt;&lt;/font&gt;" style="whiteSpace=wrap;html=1;aspect=fixed;fillColor=#e1d5e7;strokeColor=#9673a6;shadow=1;" parent="1" vertex="1">
          <mxGeometry x="175" y="250" width="80" height="80" as="geometry" />
        </mxCell>
        <mxCell id="mcf2gClhwfiL2pvnPJNO-10" value="&lt;b&gt;&lt;font style=&quot;font-size: 18px;&quot;&gt;2.2&lt;/font&gt;&lt;/b&gt;" style="whiteSpace=wrap;html=1;aspect=fixed;fillColor=#d5e8d4;strokeColor=#82b366;shadow=1;" parent="1" vertex="1">
          <mxGeometry x="265" y="250" width="80" height="80" as="geometry" />
        </mxCell>
        <mxCell id="mcf2gClhwfiL2pvnPJNO-21" value="" style="shape=flexArrow;endArrow=classic;html=1;rounded=0;fillColor=#f5f5f5;strokeColor=#666666;strokeWidth=2;shadow=1;" parent="1" edge="1">
          <mxGeometry width="50" height="50" relative="1" as="geometry">
            <mxPoint x="370" y="199.66000000000003" as="sourcePoint" />
            <mxPoint x="490" y="199.66000000000003" as="targetPoint" />
          </mxGeometry>
        </mxCell>
        <mxCell id="mcf2gClhwfiL2pvnPJNO-22" value="&lt;font style=&quot;font-size: 18px;&quot;&gt;Quantization&lt;/font&gt;" style="edgeLabel;html=1;align=center;verticalAlign=middle;resizable=0;points=[];" parent="mcf2gClhwfiL2pvnPJNO-21" vertex="1" connectable="0">
          <mxGeometry x="-0.1984" relative="1" as="geometry">
            <mxPoint x="4" y="-30" as="offset" />
          </mxGeometry>
        </mxCell>
        <mxCell id="mcf2gClhwfiL2pvnPJNO-23" value="&lt;b&gt;&lt;font style=&quot;font-size: 24px;&quot;&gt;FP32&lt;/font&gt;&lt;/b&gt;" style="text;html=1;align=center;verticalAlign=middle;resizable=0;points=[];autosize=1;strokeColor=none;fillColor=none;shadow=1;" parent="1" vertex="1">
          <mxGeometry x="180" y="345" width="70" height="20" as="geometry" />
        </mxCell>
        <mxCell id="mcf2gClhwfiL2pvnPJNO-35" value="&lt;b&gt;&lt;font style=&quot;font-size: 18px;&quot;&gt;13&lt;/font&gt;&lt;/b&gt;" style="whiteSpace=wrap;html=1;aspect=fixed;fillColor=#fff2cc;strokeColor=#d6b656;shadow=1;" parent="1" vertex="1">
          <mxGeometry x="505" y="70" width="80" height="80" as="geometry" />
        </mxCell>
        <mxCell id="mcf2gClhwfiL2pvnPJNO-36" value="&lt;b&gt;&lt;font style=&quot;font-size: 18px;&quot;&gt;-53&lt;/font&gt;&lt;/b&gt;" style="whiteSpace=wrap;html=1;aspect=fixed;fillColor=#dae8fc;strokeColor=#6c8ebf;shadow=1;" parent="1" vertex="1">
          <mxGeometry x="595" y="70" width="80" height="80" as="geometry" />
        </mxCell>
        <mxCell id="mcf2gClhwfiL2pvnPJNO-37" value="&lt;font style=&quot;font-size: 18px;&quot;&gt;&lt;b&gt;100&lt;/b&gt;&lt;/font&gt;" style="whiteSpace=wrap;html=1;aspect=fixed;fillColor=#d5e8d4;strokeColor=#82b366;shadow=1;" parent="1" vertex="1">
          <mxGeometry x="685" y="70" width="80" height="80" as="geometry" />
        </mxCell>
        <mxCell id="mcf2gClhwfiL2pvnPJNO-38" value="&lt;font style=&quot;font-size: 18px;&quot;&gt;&lt;b&gt;35&lt;/b&gt;&lt;/font&gt;" style="whiteSpace=wrap;html=1;aspect=fixed;fillColor=#ffe6cc;strokeColor=#d79b00;shadow=1;" parent="1" vertex="1">
          <mxGeometry x="505" y="160" width="80" height="80" as="geometry" />
        </mxCell>
        <mxCell id="mcf2gClhwfiL2pvnPJNO-39" value="&lt;font style=&quot;font-size: 18px;&quot;&gt;&lt;b&gt;17&lt;/b&gt;&lt;/font&gt;" style="whiteSpace=wrap;html=1;aspect=fixed;fillColor=#fff2cc;strokeColor=#d6b656;shadow=1;" parent="1" vertex="1">
          <mxGeometry x="595" y="160" width="80" height="80" as="geometry" />
        </mxCell>
        <mxCell id="mcf2gClhwfiL2pvnPJNO-40" value="&lt;font style=&quot;font-size: 18px;&quot;&gt;&lt;b&gt;125&lt;/b&gt;&lt;/font&gt;" style="whiteSpace=wrap;html=1;aspect=fixed;fillColor=#f8cecc;strokeColor=#b85450;shadow=1;" parent="1" vertex="1">
          <mxGeometry x="685" y="160" width="80" height="80" as="geometry" />
        </mxCell>
        <mxCell id="mcf2gClhwfiL2pvnPJNO-41" value="&lt;font style=&quot;font-size: 18px;&quot;&gt;&lt;b&gt;13&lt;/b&gt;&lt;/font&gt;" style="whiteSpace=wrap;html=1;aspect=fixed;fillColor=#fff2cc;strokeColor=#d6b656;shadow=1;" parent="1" vertex="1">
          <mxGeometry x="505" y="250" width="80" height="80" as="geometry" />
        </mxCell>
        <mxCell id="mcf2gClhwfiL2pvnPJNO-42" value="&lt;font style=&quot;font-size: 18px;&quot;&gt;&lt;b&gt;-100&lt;/b&gt;&lt;/font&gt;" style="whiteSpace=wrap;html=1;aspect=fixed;fillColor=#e1d5e7;strokeColor=#9673a6;shadow=1;" parent="1" vertex="1">
          <mxGeometry x="595" y="250" width="80" height="80" as="geometry" />
        </mxCell>
        <mxCell id="mcf2gClhwfiL2pvnPJNO-43" value="&lt;b&gt;&lt;font style=&quot;font-size: 18px;&quot;&gt;105&lt;/font&gt;&lt;/b&gt;" style="whiteSpace=wrap;html=1;aspect=fixed;fillColor=#d5e8d4;strokeColor=#82b366;shadow=1;" parent="1" vertex="1">
          <mxGeometry x="685" y="250" width="80" height="80" as="geometry" />
        </mxCell>
        <mxCell id="mcf2gClhwfiL2pvnPJNO-44" value="&lt;b&gt;&lt;font style=&quot;font-size: 24px;&quot;&gt;INT8&lt;/font&gt;&lt;/b&gt;" style="text;html=1;align=center;verticalAlign=middle;resizable=0;points=[];autosize=1;strokeColor=none;fillColor=none;shadow=1;" parent="1" vertex="1">
          <mxGeometry x="600" y="345" width="70" height="20" as="geometry" />
        </mxCell>
      </root>
    </mxGraphModel>
  </diagram>
</mxfile>
